<svg xmlns="http://www.w3.org/2000/svg" viewBox="0 0 500 500" fill="none">
  <path fill="#2e2c29" d="
    M 129.4 50.5
    c -8.9 1.9 -18 6.9 -24.4 13.4
      -6.8 6.8 -10.6 13.2 -13.1 21.9
      -1.8 6.4 -1.9 12.3 -1.9 157.8
      0 144.3 0.1 151.4 1.9 158.2
      4.2 16.1 15.7 28.4 32.2 34.4
    l 6.4 2.3 139 0.3
    c 131 0.2 139.2 0.1 142.5 -1.5
      5.2 -2.7 5.9 -5.8 5.9 -28.6
      0.1 -21.3 -0.6 -24.9 -5 -28.1
      -3.8 -2.6 -9.3 -2.1 -13.1 1.3
    l -3.3 2.9 -0.3 16.1 -0.4 16.1 -132.1 -0.2 -132.2 -0.3 -4 -2.2
    c -9.4 -5.1 -15.7 -15.1 -15.8 -25.3
      -0.1 -13.7 9.8 -25.4 23.7 -27.9
      4.1 -0.8 48.5 -1.1 140 -1.1
      105.2 0 134.6 -0.3 136.6 -1.3
      1.4 -0.7 3.3 -2.8 4.2 -4.7
      1.7 -3.3 1.8 -12.4 1.7 -149
      0 -110 -0.3 -146.4 -1.2 -149
      -0.8 -2.4 -2.3 -4.1 -4.7 -5.2
      -3.3 -1.7 -12 -1.8 -140 -1.7
      -109.4 0 -137.7 0.3 -142.6 1.4
    z
    m 32.8 40.6
    c 4.9 2.6 4.8 0.5 4.8 111.9
      0 115.3 0.3 109.4 -6.4 112.7
      -3.4 1.6 -3.8 1.6 -7.2 0
      -6.7 -3.3 -6.4 2.6 -6.4 -112.6
      0 -70.2 0.3 -104.9 1.1 -106.8
      2 -5.5 8.8 -8 14.1 -5.2
    z
  "/>
</svg>
